<svg xmlns="http://www.w3.org/2000/svg" viewBox="0 0 128 128" role="img" aria-label="Wiki Cleaner" width="128" height="128">
  <title>Wiki Cleaner</title>
  <!-- Mürekkep W: beyaz karo, siyah harf; mavi bağlantı çizgisi sağa doğru silinir (32 px ve üstü). -->
  <!-- W harfi: Newsreader (SIL Open Font License 1.1), wght 600, opsz 72; yola çevrildi, yazı tipi gerekmez. -->
  <rect x="1" y="1" width="126" height="126" rx="28" fill="#ffffff" stroke="#c8ccd1" stroke-width="2"/>
  <path fill="#202122" transform="translate(21.39,84.00) scale(0.03973,-0.03973)" d="M1105.7 1150.8 700.1 -11.5H545L121.1 1349.5L-34.9 1397.2V1430H654.9V1397.2L479.7 1351.5L791.6 298.8L717.1 239L1124.2 1441.5H1286.4L1726.8 292L1669.2 284.4L1944.8 1350.5L1767.1 1398V1430H2179.9V1398L2026.9 1347.5L1654 -11.5H1499L1043.9 1125.3Z"/>
  <rect x="17" y="97" width="46" height="7" rx="3.5" fill="#3366cc"/>
  <circle cx="74" cy="100.5" r="3.2" fill="#3366cc" opacity="0.75"/>
  <circle cx="84" cy="100.5" r="3.2" fill="#3366cc" opacity="0.59"/>
  <circle cx="94" cy="100.5" r="3.2" fill="#3366cc" opacity="0.43"/>
  <circle cx="104" cy="100.5" r="3.2" fill="#3366cc" opacity="0.27"/>
</svg>
